<svg height="512" viewBox="0 0 512 512" width="512" xmlns="http://www.w3.org/2000/svg"><g id="Outline"><path d="m160 112a8 8 0 0 0 -8 8v24h-16a8 8 0 0 0 -5.657 2.343l-32 32a8 8 0 0 0 -2.343 5.657v272a40.045 40.045 0 0 0 40 40h240a40.045 40.045 0 0 0 40-40v-304a40.045 40.045 0 0 0 -40-40h-104a8 8 0 0 0 -5.657 2.343l-29.657 29.657h-4.686v-24a8 8 0 0 0 -8-8h-8v-48a8 8 0 0 0 -2.343-5.657l-40-40a8 8 0 0 0 -11.314 0l-24 24a8 8 0 0 0 0 11.314l29.657 29.656v28.687zm80 48a8 8 0 0 0 5.657-2.343l29.657-29.657h100.686a24.027 24.027 0 0 1 24 24v304a24.027 24.027 0 0 1 -24 24h-240a24.027 24.027 0 0 1 -24-24v-268.686l27.314-27.314zm-72-16v-16h48v16zm13.657-69.657-26.344-26.343 12.687-12.687 32 32v44.687h-16v-32a8 8 0 0 0 -2.343-5.657z"/><path d="m264 200h112a8 8 0 0 0 8-8v-40a8 8 0 0 0 -8-8h-88a8 8 0 0 0 -5.657 2.343l-24 24a8 8 0 0 0 -2.343 5.657v16a8 8 0 0 0 8 8zm8-20.686 19.314-19.314h76.686v24h-96z"/><path d="m165.657 226.343-11.314 11.314 45.657 45.656v89.374l-45.657 45.656 11.314 11.314 45.656-45.657h89.374l45.656 45.657 11.314-11.314-45.657-45.656v-89.374l45.657-45.656-11.314-11.314-45.656 45.657h-89.374zm50.343 61.657h80v80h-80z"/></g></svg>