<svg id="Capa_1" enable-background="new 0 0 512 512" height="512" viewBox="0 0 512 512" width="512" xmlns="http://www.w3.org/2000/svg"><g><path d="m494.466 113.204h-15.995v-15.273c0-8.133-5.48-14.998-12.938-17.131v-14.996c0-10.109-8.225-18.334-18.334-18.334h-31.425c-10.109 0-18.334 8.224-18.334 18.334v14.996c-7.458 2.133-12.938 8.998-12.938 17.131v15.273h-14.423v-38.641c0-7.742-6.299-14.041-14.041-14.041h-40.206c-4.15 0-7.515 3.365-7.515 7.515s3.365 7.515 7.515 7.515h39.218v45.168c0 4.15 3.365 7.515 7.515 7.515h131.9c1.381 0 2.505 1.124 2.505 2.505v41.991c0 1.381-1.124 2.505-2.505 2.505h-373.216c-4.15 0-7.515 3.365-7.515 7.515s3.365 7.515 7.515 7.515h350.276v246.712c0 6.906-5.618 12.524-12.525 12.524h-51.953c-4.15 0-7.515 3.365-7.515 7.515s3.365 7.515 7.515 7.515h51.953c15.193 0 27.554-12.36 27.554-27.554v-246.714h7.911c9.668 0 17.534-7.866 17.534-17.534v-41.991c.001-9.668-7.865-17.535-17.533-17.535zm-78.691-50.704h31.425c1.822 0 3.304 1.482 3.304 3.304v14.297h-38.033v-14.297c0-1.822 1.482-3.304 3.304-3.304zm-16.242 35.431c0-1.545 1.256-2.801 2.801-2.801h58.307c1.545 0 2.801 1.256 2.801 2.801v15.273h-63.909z"/><path d="m376.989 449.5h-323.99c-6.906 0-12.524-5.618-12.524-12.524v-246.712h50.715c4.15 0 7.515-3.365 7.515-7.515s-3.365-7.515-7.515-7.515h-73.656c-1.381 0-2.505-1.124-2.505-2.505v-41.991c0-1.381 1.124-2.505 2.505-2.505h131.9c4.15 0 7.515-3.365 7.515-7.515v-45.167h128.826c4.15 0 7.515-3.365 7.515-7.515s-3.364-7.515-7.515-7.515h-129.815c-7.742 0-14.041 6.299-14.041 14.041v38.641h-14.423v-15.272c0-8.133-5.48-14.998-12.938-17.131v-14.996c0-10.109-8.225-18.334-18.334-18.334h-31.424c-10.109 0-18.334 8.224-18.334 18.334v14.996c-7.458 2.133-12.938 8.998-12.938 17.131v15.273h-15.994c-9.668 0-17.534 7.867-17.534 17.535v41.991c0 9.668 7.866 17.534 17.534 17.534h7.912v246.712c0 15.193 12.361 27.554 27.554 27.554h323.989c4.15 0 7.515-3.364 7.515-7.515s-3.365-7.515-7.515-7.515zm-312.189-387h31.425c1.822 0 3.304 1.482 3.304 3.304v14.297h-38.033v-14.297c0-1.822 1.482-3.304 3.304-3.304zm-16.242 35.431c0-1.545 1.256-2.801 2.801-2.801h58.307c1.545 0 2.801 1.256 2.801 2.801v15.273h-63.909z"/><path d="m277.974 316.264c-1.321-2.403-3.844-3.896-6.586-3.896h-16.936l17.455-27.482c2.225-3.503 1.189-8.147-2.315-10.372s-8.147-1.189-10.372 2.315l-24.788 39.025c-3.009 4.44.296 11.532 6.343 11.544h16.936l-17.456 27.481c-4.318 7.211 5.469 16.706 12.687 8.059l24.788-39.025c1.471-2.316 1.563-5.247.244-7.649z"/><path d="m345.243 319.882c0-49.163-39.998-89.161-89.161-89.161-49.164 0-89.161 39.998-89.161 89.161 0 49.164 39.997 89.161 89.161 89.161 49.163 0 89.161-39.997 89.161-89.161zm-163.293 0c0-40.876 33.255-74.132 74.132-74.132 40.876 0 74.132 33.255 74.132 74.132s-33.255 74.132-74.132 74.132-74.132-33.255-74.132-74.132z"/></g></svg>